<svg width="297" height="133" viewBox="0 0 297 133" fill="none" xmlns="http://www.w3.org/2000/svg">
<path d="M0.304 81.008H5.936V51.824H0.304V30.832H6.192C6.192 20.4213 8.70933 12.784 13.744 7.92C18.864 3.05599 26.288 0.623993 36.016 0.623993C40.7093 0.623993 44.8907 0.965327 48.56 1.64799C52.3147 2.33066 55.0453 3.09866 56.752 3.952V24.048C52.2293 23.6213 48.048 23.408 44.208 23.408C40.88 23.408 38.576 23.9627 37.296 25.072C36.016 26.1813 35.376 28.1013 35.376 30.832H45.36V51.824H35.376V81.008H45.36V102H0.304V81.008ZM124.053 81.008V102H90.261V93.296C88.3837 96.0267 85.7383 98.4587 82.325 100.592C78.997 102.725 74.901 103.792 70.037 103.792C63.637 103.792 58.6023 102.085 54.933 98.672C51.2637 95.2587 49.429 90.4373 49.429 84.208C49.429 68.08 63.125 59.8027 90.517 59.376C90.261 56.4747 89.1517 54.512 87.189 53.488C85.2263 52.3787 81.8983 51.824 77.205 51.824C73.365 51.824 69.2263 52.2507 64.789 53.104C60.437 53.872 56.4263 54.9387 52.757 56.304V32.752C57.2797 31.6427 62.1863 30.7467 67.477 30.064C72.7677 29.3813 77.9303 29.04 82.965 29.04C95.6797 29.04 104.768 31.344 110.229 35.952C115.69 40.56 118.421 47.6853 118.421 57.328V81.008H124.053ZM90.261 72.048C86.421 72.048 83.4343 72.56 81.301 73.584C79.253 74.608 78.229 76.3147 78.229 78.704C78.229 80.1547 78.6557 81.3493 79.509 82.288C80.4477 83.1413 81.7277 83.568 83.349 83.568C85.5677 83.568 87.2743 82.6293 88.469 80.752C89.6637 78.8747 90.261 76.2293 90.261 72.816V72.048ZM212.403 81.008V102H177.331V92.016C171.187 99.8667 163.507 103.792 154.291 103.792C147.208 103.792 141.875 101.573 138.291 97.136C134.792 92.6987 133.043 86.5973 133.043 78.832V51.824H127.411V30.832H162.483V72.816C162.483 75.632 163.08 77.7227 164.275 79.088C165.555 80.368 167.432 81.008 169.907 81.008C172.382 81.008 174.216 80.368 175.411 79.088C176.691 77.7227 177.331 75.632 177.331 72.816V51.824H170.419V30.832H206.771V81.008H212.403ZM221.433 23.792V2.41599H247.545V23.792H221.433ZM220.537 132.208C217.038 132.208 213.454 131.909 209.785 131.312C206.03 130.715 202.873 130.075 200.313 129.392V108.528C204.324 109.125 207.908 109.424 211.065 109.424C217.636 109.424 220.921 106.352 220.921 100.208V51.824H212.345V30.832H250.361V97.648C250.361 109.339 247.886 118 242.937 123.632C237.988 129.349 230.521 132.208 220.537 132.208ZM262.198 23.792V2.41599H288.31V23.792H262.198ZM256.054 102V81.008H261.686V51.824H256.054V30.832H291.126V81.008H296.758V102H256.054Z" fill="#D97757"/>
</svg>
